HIERARCHY
ROOT Hips
{
	OFFSET	0.00	0.00	0.00
	CHANNELS 6 Xposition Yposition Zposition Zrotation Xrotation Yrotation
	JOINT LeftUpLeg
	{
		OFFSET	 0.126116	-0.065224	 0.014019
		CHANNELS 3 Zrotation Xrotation Yrotation
		JOINT LeftLeg
		{
			OFFSET	 0.000000	 0.569914	 0.000000
			CHANNELS 3 Zrotation Xrotation Yrotation
			JOINT LeftFoot
			{
				OFFSET	 0.000000	 0.544423	 0.000000
				CHANNELS 3 Zrotation Xrotation Yrotation
				JOINT LeftToeBase
				{
					OFFSET	 0.000000	 0.207117	 0.000000
					CHANNELS 3 Zrotation Xrotation Yrotation
					End Site
					{
						OFFSET	 0.000000	 0.207117	 0.000000
					}
				}
			}
		}
	}
	JOINT RightUpLeg
	{
		OFFSET	-0.124023	-0.065224	 0.008373
		CHANNELS 3 Zrotation Xrotation Yrotation
		JOINT RightLeg
		{
			OFFSET	 0.000000	 0.570047	 0.000000
			CHANNELS 3 Zrotation Xrotation Yrotation
			JOINT RightFoot
			{
				OFFSET	 0.000000	 0.544354	 0.000000
				CHANNELS 3 Zrotation Xrotation Yrotation
				JOINT RightToeBase
				{
					OFFSET	 0.000000	 0.207540	 0.000000
					CHANNELS 3 Zrotation Xrotation Yrotation
					End Site
					{
						OFFSET	 0.000000	 0.207540	 0.000000
					}
				}
			}
		}
	}
	JOINT Spine
	{
		OFFSET	 0.000184	 0.117403	 0.007763
		CHANNELS 3 Zrotation Xrotation Yrotation
		JOINT Spine1
		{
			OFFSET	 0.000000	 0.137269	 0.000000
			CHANNELS 3 Zrotation Xrotation Yrotation
			JOINT Spine2
			{
				OFFSET	 0.000000	 0.156879	 0.000000
				CHANNELS 3 Zrotation Xrotation Yrotation
				JOINT LeftShoulder
				{
					OFFSET	 0.080501	 0.160143	 0.002496
					CHANNELS 3 Zrotation Xrotation Yrotation
					JOINT LeftArm
					{
						OFFSET	 0.000000	 0.164363	 0.000000
						CHANNELS 3 Zrotation Xrotation Yrotation
						JOINT LeftForeArm
						{
							OFFSET	 0.000000	 0.364576	 0.000000
							CHANNELS 3 Zrotation Xrotation Yrotation
							JOINT LeftHand
							{
								OFFSET	 0.000000	 0.360812	 0.000000
								CHANNELS 3 Zrotation Xrotation Yrotation
								JOINT LeftHandIndex1
								{
									OFFSET	 0.000000	 0.086006	 0.000000
									CHANNELS 3 Zrotation Xrotation Yrotation
									JOINT LeftHandIndex2
									{
										OFFSET	 0.000000	 0.047237	 0.000000
										CHANNELS 3 Zrotation Xrotation Yrotation
										JOINT LeftHandIndex3
										{
											OFFSET	-0.004284	 0.038165	 0.000551
											CHANNELS 3 Zrotation Xrotation Yrotation
											End Site
											{
												OFFSET	-0.004284	 0.038165	 0.000551
											}
										}
									}
								}
							}
						}
					}
				}
				JOINT Neck
				{
					OFFSET	 0.000000	 0.176489	 0.000000
					CHANNELS 3 Zrotation Xrotation Yrotation
					JOINT Head
					{
						OFFSET	 0.000000	 0.077941	 0.001747
						CHANNELS 3 Zrotation Xrotation Yrotation
						End Site
						{
							OFFSET	 0.000000	 0.077941	 0.001747
						}
					}
				}
				JOINT RightShoulder
				{
					OFFSET	-0.080363	 0.159706	-0.000306
					CHANNELS 3 Zrotation Xrotation Yrotation
					JOINT RightArm
					{
						OFFSET	 0.000000	 0.164196	 0.000000
						CHANNELS 3 Zrotation Xrotation Yrotation
						JOINT RightForeArm
						{
							OFFSET	 0.000000	 0.365611	 0.000000
							CHANNELS 3 Zrotation Xrotation Yrotation
							JOINT RightHand
							{
								OFFSET	 0.000000	 0.360648	 0.000000
								CHANNELS 3 Zrotation Xrotation Yrotation
								JOINT RightHandIndex1
								{
									OFFSET	 0.000000	 0.069977	 0.000000
									CHANNELS 3 Zrotation Xrotation Yrotation
									JOINT RightHandIndex2
									{
										OFFSET	 0.000000	 0.052305	 0.000000
										CHANNELS 3 Zrotation Xrotation Yrotation
										JOINT RightHandIndex3
										{
											OFFSET	 0.009002	 0.042196	 0.000782
											CHANNELS 3 Zrotation Xrotation Yrotation
											End Site
											{
												OFFSET	 0.009002	 0.042196	 0.000782
											}
										}
									}
								}
							}
						}
					}
				}
			}
		}
	}
}
MOTION
Frames:    8
Frame Time: 0.03333334
-0.046047	 1.234504	-1.246533	-3.202273	 1.411591	-174.175600	 175.003000	 8.130740	-15.848010	 4.372033	-29.904790	 6.101449	 7.992988	 80.730580	-0.550842	 1.512287	 31.240310	-2.811662	 167.848200	 27.272140	 20.028030	-5.783957	-53.272260	 6.318664	 4.240930	 69.990070	-3.458871	-1.668530	 33.137300	 2.886185	-1.440422	 8.617994	-2.763788	 0.402199	 3.554769	-0.786601	-0.236706	-3.940328	-0.749575	-121.358900	 7.423546	 94.035510	 51.601470	 13.269730	-22.545320	 4.160789	-0.215114	-0.076078	-13.797000	 14.336990	 3.961924	 4.624177	 18.856530	-1.654968	-5.863953	 21.470840	 2.373669	 5.331528	 4.340008	-0.169039	-0.168371	-5.009586	-0.144698	-2.107851	-2.034301	-3.139565	 118.423900	-0.013285	-90.826360	-5.374626	 47.852940	-1.238415	-4.897484	-0.192462	 0.050350	-3.143991	 9.372563	-11.869770	-2.438165	 25.992480	 1.336381	 15.855080	 44.981340	-11.843920	-8.529009	 23.990480	-1.227679
-0.045923	 1.233896	-1.248377	-3.196123	 1.171943	-174.112000	 175.453000	 8.305457	-17.589700	 4.427308	-30.096010	 6.208996	 8.738400	 81.057790	-1.260421	 1.515725	 31.283100	-2.813280	 166.941700	 26.895920	 22.181300	-5.853946	-53.529360	 6.300241	 4.493910	 71.497380	-3.638435	-1.670031	 33.155240	 2.886935	-1.498022	 8.378481	-2.367291	 0.235156	 2.135734	-0.794327	-0.168819	-3.287555	-0.722907	-121.357700	 7.466353	 94.056740	 50.819850	 14.073750	-22.177470	 4.210080	-0.214742	 0.238189	-12.953370	 13.960980	 3.981759	 4.629708	 18.874680	-1.657916	-5.863904	 21.486780	 2.375428	 5.332212	 4.356040	-0.168747	-0.169155	-5.013228	-0.141096	-2.094603	-2.052943	-3.141476	 118.418000	-0.038534	-90.814520	-4.375030	 47.834410	-1.907924	-4.904876	-0.190544	-0.263756	-2.810628	 9.602331	-12.097690	-2.418049	 25.843320	 1.325578	 15.817130	 44.835820	-11.785640	-8.529593	 23.840740	-1.217690
-0.045851	 1.233331	-1.251092	-3.217607	 1.050779	-174.043900	 175.652200	 8.301714	-18.425150	 4.473052	-30.210420	 6.326141	 9.287624	 81.292320	-1.811465	 1.519785	 31.333560	-2.815193	 166.496600	 26.309180	 23.267740	-5.927940	-53.781710	 6.285443	 5.620192	 73.293670	-4.407981	-1.671802	 33.176410	 2.887822	-1.577097	 8.265958	-1.890840	 0.034667	 0.334129	-0.698974	-0.092678	-2.457283	-0.793599	-121.356400	 7.516861	 94.081830	 50.172580	 14.968590	-21.876410	 4.277636	-0.214760	 0.608809	-12.310840	 13.479120	 4.104948	 4.636232	 18.896080	-1.661397	-5.863845	 21.505580	 2.377503	 5.333020	 4.374952	-0.168404	-0.170079	-5.017521	-0.136848	-2.078968	-2.074745	-3.143717	 118.410900	-0.068313	-90.800540	-3.199137	 47.970390	-2.694884	-4.947406	-0.189550	-0.634269	-2.307154	 9.708333	-12.401990	-2.394395	 25.667370	 1.312928	 15.772770	 44.664140	-11.717260	-8.530247	 23.664110	-1.205924
-0.045738	 1.232713	-1.254866	-3.234465	 0.947272	-173.964200	 175.839200	 8.221499	-19.030120	 4.446863	-30.325940	 6.314942	 9.949226	 81.553960	-2.500255	 1.524716	 31.394790	-2.817521	 166.131900	 25.444420	 24.249160	-6.010428	-54.039880	 6.273561	 7.687933	 75.528240	-5.939757	-1.673951	 33.202090	 2.888898	-1.658769	 8.172025	-1.310157	-0.224509	-2.076926	-0.641763	 0.011016	-1.344855	-0.824471	-121.354800	 7.578158	 94.112290	 49.393330	 16.131820	-21.520160	 4.361496	-0.214916	 1.058572	-11.627720	 12.864620	 4.316773	 4.644152	 18.922040	-1.665624	-5.863777	 21.528390	 2.380022	 5.333999	 4.397899	-0.167987	-0.171200	-5.022734	-0.131692	-2.059999	-2.101310	-3.146433	 118.402400	-0.104492	-90.783550	-1.640045	 48.174130	-3.752378	-5.005508	-0.188646	-1.083902	-1.646582	 9.786816	-12.798330	-2.365792	 25.453820	 1.297709	 15.719490	 44.455740	-11.634790	-8.530983	 23.449770	-1.191669
-0.045572	 1.232023	-1.260590	-3.239221	 0.850343	-173.865600	 176.055800	 8.015776	-19.724850	 4.461872	-30.410060	 6.415205	 10.871100	 81.880960	-3.488349	 1.531273	 31.476090	-2.820624	 165.831600	 24.038330	 25.264030	-6.095850	-54.251880	 6.277756	 12.060480	 78.531750	-9.478713	-1.676807	 33.236180	 2.890330	-1.749884	 8.047356	-0.533079	-0.587697	-5.563329	-0.571745	 0.159464	 0.261952	-0.869712	-121.352800	 7.659542	 94.152690	 48.302980	 17.820090	-21.020930	 4.476752	-0.215317	 1.655378	-10.811650	 12.009010	 4.678430	 4.654671	 18.956520	-1.671243	-5.863688	 21.558680	 2.383366	 5.335300	 4.428364	-0.167435	-0.172687	-5.029652	-0.124848	-2.034819	-2.136596	-3.150025	 118.391100	-0.152475	-90.761050	 0.670258	 48.462010	-5.345583	-5.087702	-0.187631	-1.680483	-0.708888	 9.837712	-13.358420	-2.327989	 25.170280	 1.277725	 15.649690	 44.178940	-11.526160	-8.531870	 23.165160	-1.172784
-0.045213	 1.231207	-1.274099	-3.240374	 0.779223	-173.673500	 176.401200	 7.237412	-20.742850	 4.436943	-30.270390	 6.587348	 12.737530	 82.433820	-5.558614	 1.544356	 31.637900	-2.826840	 165.689400	 20.305550	 26.548730	-5.938989	-53.993220	 6.631877	 34.616230	 84.086430	-30.046470	-1.682498	 33.304040	 2.893188	-1.949884	 7.469225	 1.029348	-1.344572	-12.678530	-0.484767	 0.478376	 3.512294	-0.970791	-121.348900	 7.821506	 94.233150	 45.846000	 21.585340	-19.836300	 4.714118	-0.216528	 2.842447	-9.379502	 10.216200	 5.597672	 4.675626	 19.025130	-1.682450	-5.863515	 21.618970	 2.390023	 5.337888	 4.489001	-0.166337	-0.175646	-5.043425	-0.111226	-1.984684	-2.206650	-3.157122	 118.368800	-0.248019	-90.716260	 6.037328	 48.982820	-9.137034	-5.261578	-0.186061	-2.867258	 1.307733	 9.801719	-14.544220	-2.253315	 24.605790	 1.238691	 15.513850	 43.627650	-11.312790	-8.533328	 22.598580	-1.135318
-0.044914	 1.231348	-1.285558	-3.224065	 0.845298	-173.536100	 176.611000	 6.296550	-21.306760	 4.352481	-29.794110	 6.681702	 14.048400	 82.696660	-7.072384	 1.554044	 31.757360	-2.831465	 165.966200	 16.695820	 27.167470	-5.709522	-52.917030	 6.960824	 85.632720	 85.977810	-79.375270	-1.686705	 33.354150	 2.895304	-2.108314	 6.450331	 2.196026	-1.859761	-17.269590	-0.456492	 0.699728	 5.568649	-1.047660	-121.346200	 7.941079	 94.292560	 43.752160	 24.614070	-18.726300	 4.893078	-0.217607	 3.717774	-8.422784	 8.848440	 6.372445	 4.691113	 19.075790	-1.690745	-5.863392	 21.663470	 2.394940	 5.339798	 4.533767	-0.165529	-0.177827	-5.053593	-0.101169	-1.947672	-2.258475	-3.162330	 118.352300	-0.318561	-90.683240	 10.554760	 49.223490	-12.396900	-5.394717	-0.185038	-3.742255	 2.877985	 9.677503	-15.436760	-2.198659	 24.188940	 1.210497	 15.416150	 43.220330	-11.157630	-8.534143	 22.180210	-1.107760
-0.044350	 1.232840	-1.301298	-3.164475	 1.154654	-173.378200	 176.845800	 4.524656	-21.860680	 4.136279	-28.554050	 6.748499	 15.393170	 82.736120	-8.735950	 1.566270	 31.907720	-2.837327	 166.811900	 11.003340	 27.598960	-5.154643	-50.073000	 7.587730	 136.532500	 83.225810	-127.976800	-1.692007	 33.417210	 2.897976	-2.263286	 4.351832	 3.677157	-2.399287	-21.621040	-0.421103	 0.937470	 7.469347	-1.137508	-121.343000	 8.091590	 94.367350	 40.760760	 28.563680	-16.969640	 5.128645	-0.219514	 4.817391	-7.282588	 7.106846	 7.380069	 4.710620	 19.139540	-1.701208	-5.863243	 21.719490	 2.401131	 5.342200	 4.590113	-0.164513	-0.180571	-5.066391	-0.088512	-1.901081	-2.323662	-3.168832	 118.331600	-0.407373	-90.641690	 16.687550	 49.263600	-16.886950	-5.566603	-0.183986	-4.841521	 4.889365	 9.420459	-16.519550	-2.130427	 23.664160	 1.175753	 15.296210	 42.707320	-10.965110	-8.534861	 21.653560	-1.073195
